HIERARCHY
ROOT Hips
{
	OFFSET 0.000000 121.760803 0.000000
	CHANNELS 6 Xposition Yposition Zposition Xrotation Yrotation Zrotation 
	JOINT Spine
	{
		OFFSET 0.072000 7.257294 -0.789700
		CHANNELS 3 Xrotation Yrotation Zrotation
		JOINT Spine1
		{
			OFFSET 0.000000 12.508769 -0.658067
			CHANNELS 3 Xrotation Yrotation Zrotation
			JOINT Spine1_split
			{
				OFFSET 0.000000 12.508769 -0.658067
				CHANNELS 3 Xrotation Yrotation Zrotation
				JOINT Spine2
				{
					OFFSET 0.000000 12.508769 -0.658067
					CHANNELS 3 Xrotation Yrotation Zrotation
					JOINT Neck
					{
						OFFSET 0.000000 14.033295 7.520400
						CHANNELS 3 Xrotation Yrotation Zrotation
						JOINT Head
						{
							OFFSET 0.000000 8.198502 5.703100
							CHANNELS 3 Xrotation Yrotation Zrotation
							JOINT HeadTop_End
							{
								OFFSET 0.000000 17.760803 13.332701
								CHANNELS 3 Xrotation Yrotation Zrotation
								End Site
								{
									OFFSET 0.000000 0.000000 0.000000
								}
							}
						}
					}
					JOINT LeftShoulder
					{
						OFFSET 6.292450 5.785301 -0.669000
						CHANNELS 3 Xrotation Yrotation Zrotation
						JOINT LeftShoulder_split
						{
							OFFSET 6.292450 5.785301 -0.669000
							CHANNELS 3 Xrotation Yrotation Zrotation
							JOINT LeftArm
							{
								OFFSET 13.907140 -6.093903 1.965100
								CHANNELS 3 Xrotation Yrotation Zrotation
								JOINT LeftForeArm
								{
									OFFSET 34.140198 0.000000 0.000000
									CHANNELS 3 Xrotation Yrotation Zrotation
									JOINT LeftHand
									{
										OFFSET 40.960209 0.000000 0.000000
										CHANNELS 3 Xrotation Yrotation Zrotation
										JOINT LeftHandThumb1
										{
											OFFSET 10.006996 -7.170425 9.573125
											CHANNELS 3 Xrotation Yrotation Zrotation
											JOINT LeftHandThumb2
											{
												OFFSET 1.835007 -1.059448 1.059443
												CHANNELS 3 Xrotation Yrotation Zrotation
												JOINT LeftHandThumb3
												{
													OFFSET 2.112267 -1.219513 1.219518
													CHANNELS 3 Xrotation Yrotation Zrotation
													JOINT LeftHandThumb4
													{
														OFFSET 4.843811 -2.796570 2.796576
														CHANNELS 3 Xrotation Yrotation Zrotation
														End Site
														{
															OFFSET 0.000000 0.000000 0.000000
														}
													}
												}
											}
										}
										JOINT LeftHandIndex1
										{
											OFFSET 18.389847 -0.922348 4.596882
											CHANNELS 3 Xrotation Yrotation Zrotation
											JOINT LeftHandIndex2
											{
												OFFSET 4.711273 0.000000 0.000000
												CHANNELS 3 Xrotation Yrotation Zrotation
												JOINT LeftHandIndex3
												{
													OFFSET 2.886131 0.000000 0.000000
													CHANNELS 3 Xrotation Yrotation Zrotation
													JOINT LeftHandIndex4
													{
														OFFSET 6.145912 0.000000 0.000000
														CHANNELS 3 Xrotation Yrotation Zrotation
														End Site
														{
															OFFSET 0.000000 0.000000 0.000000
														}
													}
												}
											}
										}
										JOINT LeftHandMiddle1
										{
											OFFSET 18.013008 0.000000 0.000000
											CHANNELS 3 Xrotation Yrotation Zrotation
											JOINT LeftHandMiddle2
											{
												OFFSET 4.946693 0.000000 0.000000
												CHANNELS 3 Xrotation Yrotation Zrotation
												JOINT LeftHandMiddle3
												{
													OFFSET 3.342232 0.000000 0.000000
													CHANNELS 3 Xrotation Yrotation Zrotation
													JOINT LeftHandMiddle4
													{
														OFFSET 4.461754 0.000000 0.000000
														CHANNELS 3 Xrotation Yrotation Zrotation
														End Site
														{
															OFFSET 0.000000 0.000000 0.000000
														}
													}
												}
											}
										}
										JOINT LeftHandRing1
										{
											OFFSET 15.849892 -0.102921 -4.126150
											CHANNELS 3 Xrotation Yrotation Zrotation
											JOINT LeftHandRing2
											{
												OFFSET 3.527054 0.000000 0.000000
												CHANNELS 3 Xrotation Yrotation Zrotation
												JOINT LeftHandRing3
												{
													OFFSET 2.961098 0.000000 0.000000
													CHANNELS 3 Xrotation Yrotation Zrotation
													JOINT LeftHandRing4
													{
														OFFSET 4.927200 0.000000 0.000000
														CHANNELS 3 Xrotation Yrotation Zrotation
														End Site
														{
															OFFSET 0.000000 0.000000 0.000000
														}
													}
												}
											}
										}
										JOINT LeftHandPinky1
										{
											OFFSET 12.791824 -0.832031 -6.799156
											CHANNELS 3 Xrotation Yrotation Zrotation
											JOINT LeftHandPinky2
											{
												OFFSET 3.327133 0.000000 0.000000
												CHANNELS 3 Xrotation Yrotation Zrotation
												JOINT LeftHandPinky3
												{
													OFFSET 3.014900 0.000000 0.000000
													CHANNELS 3 Xrotation Yrotation Zrotation
													JOINT LeftHandPinky4
													{
														OFFSET 5.847786 0.000000 0.000000
														CHANNELS 3 Xrotation Yrotation Zrotation
														End Site
														{
															OFFSET 0.000000 0.000000 0.000000
														}
													}
												}
											}
										}
									}
								}
							}
						}
					}
					JOINT RightShoulder
					{
						OFFSET -6.292450 5.785301 -0.669000
						CHANNELS 3 Xrotation Yrotation Zrotation
						JOINT RightShoulder_split
						{
							OFFSET -6.292450 5.785301 -0.669000
							CHANNELS 3 Xrotation Yrotation Zrotation
							JOINT RightArm
							{
								OFFSET -13.907140 -6.093903 1.965100
								CHANNELS 3 Xrotation Yrotation Zrotation
								JOINT RightForeArm
								{
									OFFSET -34.140198 0.000000 0.000000
									CHANNELS 3 Xrotation Yrotation Zrotation
									JOINT RightHand
									{
										OFFSET -40.960209 0.000000 0.000000
										CHANNELS 3 Xrotation Yrotation Zrotation
										JOINT RightHandThumb1
										{
											OFFSET -10.007050 -7.170456 9.573117
											CHANNELS 3 Xrotation Yrotation Zrotation
											JOINT RightHandThumb2
											{
												OFFSET -1.835007 -1.059448 1.059443
												CHANNELS 3 Xrotation Yrotation Zrotation
												JOINT RightHandThumb3
												{
													OFFSET -2.112267 -1.219513 1.219518
													CHANNELS 3 Xrotation Yrotation Zrotation
													JOINT RightHandThumb4
													{
														OFFSET -4.843834 -2.796585 2.796590
														CHANNELS 3 Xrotation Yrotation Zrotation
														End Site
														{
															OFFSET 0.000000 0.000000 0.000000
														}
													}
												}
											}
										}
										JOINT RightHandIndex1
										{
											OFFSET -18.389870 -0.922424 4.596786
											CHANNELS 3 Xrotation Yrotation Zrotation
											JOINT RightHandIndex2
											{
												OFFSET -4.711273 0.000000 0.000000
												CHANNELS 3 Xrotation Yrotation Zrotation
												JOINT RightHandIndex3
												{
													OFFSET -2.886131 0.000000 0.000000
													CHANNELS 3 Xrotation Yrotation Zrotation
													JOINT RightHandIndex4
													{
														OFFSET -6.145920 0.000000 0.000000
														CHANNELS 3 Xrotation Yrotation Zrotation
														End Site
														{
															OFFSET 0.000000 0.000000 0.000000
														}
													}
												}
											}
										}
										JOINT RightHandMiddle1
										{
											OFFSET -18.013008 0.000000 0.000000
											CHANNELS 3 Xrotation Yrotation Zrotation
											JOINT RightHandMiddle2
											{
												OFFSET -4.946693 0.000000 0.000000
												CHANNELS 3 Xrotation Yrotation Zrotation
												JOINT RightHandMiddle3
												{
													OFFSET -3.342232 0.000000 0.000000
													CHANNELS 3 Xrotation Yrotation Zrotation
													JOINT RightHandMiddle4
													{
														OFFSET -4.461754 0.000000 0.000000
														CHANNELS 3 Xrotation Yrotation Zrotation
														End Site
														{
															OFFSET 0.000000 0.000000 0.000000
														}
													}
												}
											}
										}
										JOINT RightHandRing1
										{
											OFFSET -15.849876 -0.102936 -4.126237
											CHANNELS 3 Xrotation Yrotation Zrotation
											JOINT RightHandRing2
											{
												OFFSET -3.527054 0.000000 0.000000
												CHANNELS 3 Xrotation Yrotation Zrotation
												JOINT RightHandRing3
												{
													OFFSET -2.961098 0.000000 0.000000
													CHANNELS 3 Xrotation Yrotation Zrotation
													JOINT RightHandRing4
													{
														OFFSET -4.927200 0.000000 0.000000
														CHANNELS 3 Xrotation Yrotation Zrotation
														End Site
														{
															OFFSET 0.000000 0.000000 0.000000
														}
													}
												}
											}
										}
										JOINT RightHandPinky1
										{
											OFFSET -12.791786 -0.832077 -6.799222
											CHANNELS 3 Xrotation Yrotation Zrotation
											JOINT RightHandPinky2
											{
												OFFSET -3.327133 0.000000 0.000000
												CHANNELS 3 Xrotation Yrotation Zrotation
												JOINT RightHandPinky3
												{
													OFFSET -3.014900 0.000000 0.000000
													CHANNELS 3 Xrotation Yrotation Zrotation
													JOINT RightHandPinky4
													{
														OFFSET -5.847786 0.000000 0.000000
														CHANNELS 3 Xrotation Yrotation Zrotation
														End Site
														{
															OFFSET 0.000000 0.000000 0.000000
														}
													}
												}
											}
										}
									}
								}
							}
						}
					}
				}
			}
		}
	}
	JOINT LeftUpLeg
	{
		OFFSET 13.026900 -6.336304 -1.092800
		CHANNELS 3 Xrotation Yrotation Zrotation
		JOINT LeftLeg
		{
			OFFSET 0.524474 -46.096886 9.782700
			CHANNELS 3 Xrotation Yrotation Zrotation
			JOINT LeftFoot
			{
				OFFSET -0.524474 -53.427422 -12.948200
				CHANNELS 3 Xrotation Yrotation Zrotation
				JOINT LeftToeBase
				{
					OFFSET 0.192200 -14.009700 16.364100
					CHANNELS 3 Xrotation Yrotation Zrotation
					JOINT LeftToe_End
					{
						OFFSET -1.784700 -0.561700 9.474800
						CHANNELS 3 Xrotation Yrotation Zrotation
						End Site
						{
							OFFSET 0.000000 0.000000 0.000000
						}
					}
				}
			}
		}
	}
	JOINT RightUpLeg
	{
		OFFSET -12.883000 -6.336304 -1.092800
		CHANNELS 3 Xrotation Yrotation Zrotation
		JOINT RightLeg
		{
			OFFSET -0.524587 -46.096825 9.782800
			CHANNELS 3 Xrotation Yrotation Zrotation
			JOINT RightFoot
			{
				OFFSET 0.524587 -53.427383 -12.948300
				CHANNELS 3 Xrotation Yrotation Zrotation
				JOINT RightToeBase
				{
					OFFSET -0.192200 -14.009700 16.364100
					CHANNELS 3 Xrotation Yrotation Zrotation
					JOINT RightToe_End
					{
						OFFSET 1.784700 -0.561700 9.474800
						CHANNELS 3 Xrotation Yrotation Zrotation
						End Site
						{
							OFFSET 0.000000 0.000000 0.000000
						}
					}
				}
			}
		}
	}
}
MOTION
Frames: 4
Frame Time: 0.016667
80.419449 116.292679 188.767105 -3.439454 42.731610 9.690589 2.619658 -1.010046 -7.841069 -1.325620 -1.163662 0.817525 0.000000 0.000000 0.000000 -1.438975 -1.086679 0.916038 -7.118961 3.300073 1.481927 3.009341 7.256458 -2.336360 -0.000000 0.000000 0.000000 1.278786 8.282243 -5.884516 0.000000 0.000000 0.000000 5.487390 -5.716228 -69.262571 10.995033 -23.144448 4.299473 -3.505218 1.553084 -4.566411 10.887896 1.246830 25.518085 -6.107955 25.101719 -7.037463 -9.406638 -1.750311 -3.989116 -0.000000 0.000000 0.000001 2.273932 2.860332 -7.022262 -2.151796 2.437466 -12.915097 -1.885681 4.814856 -8.697645 0.000001 0.000000 0.000001 -1.975895 5.648618 -12.925043 0.258614 5.087091 -31.070298 -0.657305 1.132677 -15.791131 0.000001 -0.000001 0.000004 -4.961695 10.079273 -11.366451 4.009606 4.047734 -37.672619 2.112266 3.154739 -20.008368 -0.000000 0.000000 -0.000001 -6.453045 11.290878 -20.815879 10.729968 2.574864 -38.101643 6.432900 3.097509 -18.557487 0.000000 0.000001 -0.000002 0.653106 6.246605 2.354861 0.000000 0.000000 0.000000 1.709284 -0.054533 76.942088 10.204119 11.314850 -3.125140 0.035609 4.570855 -3.022560 10.804402 -0.128349 -25.394993 -5.935889 -25.377867 7.041882 -8.629349 0.246786 3.587698 0.000002 0.000002 -0.000005 2.290274 -3.071422 7.871203 -2.151281 -2.429194 14.934074 -1.878398 -4.822651 10.716019 -0.000003 0.000000 -0.000001 -1.974376 -5.650451 14.486237 0.269446 -5.094372 31.329712 -0.661170 -1.135433 16.049792 -0.000000 0.000001 -0.000003 -4.966004 -10.089017 12.710206 4.004644 -4.055499 37.979957 2.122489 -3.152963 20.316375 0.000002 -0.000004 0.000002 -6.445521 -11.295039 22.248672 10.719198 -2.567183 37.975193 6.423203 -3.087404 18.431597 0.000001 0.000002 -0.000000 -14.989844 10.778816 -15.732017 27.842115 -10.249561 -0.463070 21.395866 -0.709609 14.223686 -29.247529 0.019769 1.725552 0.000000 -0.000001 0.000000 -17.696023 15.407551 -2.829897 49.176911 -6.956494 -0.539656 32.161605 -5.788294 -6.289976 -33.062893 -0.326136 4.760688 0.000003 -0.000001 -0.000002 
81.366119 116.649162 190.244492 -3.072828 43.943354 8.793978 3.141366 -1.301852 -7.703934 -1.672385 -1.446842 1.136366 0.000000 0.000000 0.000000 -1.783760 -1.357290 1.239757 -6.992467 3.127436 1.770555 3.081408 7.243100 -2.534713 0.000000 -0.000000 0.000000 1.222377 7.998277 -5.656146 0.000000 0.000000 0.000000 4.902274 -6.661225 -69.184905 10.630489 -23.193319 4.158747 -3.663192 1.608659 -4.129036 10.909322 1.522096 25.549684 -6.151148 25.034124 -7.036824 -9.599617 -2.120138 -4.091466 -0.000001 0.000000 0.000002 2.269689 2.808452 -6.812916 -2.151587 2.437652 -12.417615 -1.886575 4.815411 -8.200067 -0.000001 0.000000 0.000002 -1.976495 5.649601 -12.540146 0.258745 5.086672 -31.006532 -0.657469 1.133252 -15.727306 0.000002 -0.000001 -0.000002 -4.961859 10.080340 -11.034842 4.009661 4.047401 -37.596810 2.111946 3.154880 -19.932551 0.000001 -0.000001 0.000001 -6.453596 11.291874 -20.462873 10.729411 2.575065 -38.132444 6.433025 3.097722 -18.588227 -0.000000 0.000003 -0.000001 0.631577 5.767202 2.506482 0.000000 0.000000 0.000000 2.266445 -0.402031 76.731295 9.995588 11.382977 -3.178013 0.011979 4.430599 -2.802292 10.782482 0.147471 -25.365098 -5.892665 -25.445470 7.042854 -8.441567 -0.125864 3.492237 0.000001 0.000001 -0.000004 2.295239 -3.123461 8.080483 -2.151247 -2.429915 15.431636 -1.878147 -4.824038 11.213624 -0.000000 0.000001 0.000000 -1.974498 -5.650700 14.871116 0.269473 -5.094367 31.393493 -0.660952 -1.134659 16.113623 0.000002 0.000000 0.000001 -4.966624 -10.089653 13.041866 4.004886 -4.055848 38.055806 2.122841 -3.153484 20.392189 0.000001 -0.000000 -0.000002 -6.446270 -11.296295 22.601692 10.719371 -2.567250 37.944416 6.423098 -3.087432 18.400840 0.000000 0.000002 0.000001 -14.024164 10.721783 -14.981417 27.571083 -10.973982 -0.516644 20.284753 -0.848838 14.490584 -28.990106 0.048406 1.639936 -0.000000 0.000001 0.000000 -20.126759 16.290508 -1.996389 47.820398 -7.384613 -0.573521 32.247017 -5.561108 -4.991692 -34.342990 -0.579502 6.041145 0.000002 0.000002 -0.000001 
82.487289 117.130440 191.877594 -2.690110 45.055223 7.714714 3.267098 -1.457563 -7.240223 -1.777615 -1.610059 1.334798 0.000000 0.000000 0.000000 -1.884348 -1.504945 1.444945 -6.959355 2.850379 2.091297 3.091849 7.132212 -2.654659 -0.000000 -0.000001 -0.000000 1.160517 7.595448 -5.207532 0.000000 0.000000 0.000000 4.128661 -7.551711 -69.228981 10.365307 -23.115706 4.027324 -3.787322 0.679975 -3.598839 10.930306 1.792580 25.581154 -6.193598 24.967746 -7.036316 -9.790366 -2.483148 -4.193436 -0.000001 -0.000000 0.000001 2.265746 2.757448 -6.607041 -2.151404 2.437961 -11.928490 -1.887624 4.816290 -7.710943 0.000004 0.000001 0.000001 -1.977439 5.650761 -12.161675 0.258689 5.086296 -30.943841 -0.657616 1.133815 -15.664556 0.000002 -0.000005 0.000002 -4.962418 10.081673 -10.708759 4.009738 4.047076 -37.522279 2.111644 3.155012 -19.858013 0.000001 0.000001 0.000000 -6.454403 11.293241 -20.115809 10.728968 2.575299 -38.162716 6.433166 3.097911 -18.618503 0.000001 0.000001 0.000001 0.551898 5.166439 2.977073 0.000000 0.000000 0.000000 2.826251 -0.847822 76.289900 9.960783 11.547361 -3.248047 0.025170 3.872511 -2.722508 10.760886 0.418754 -25.335991 -5.850209 -25.511977 7.043878 -8.257945 -0.492770 3.399683 -0.000000 -0.000001 0.000004 2.301331 -3.174558 8.286272 -2.151119 -2.430780 15.920835 -1.878160 -4.826332 11.702711 0.000002 0.000001 0.000001 -1.974740 -5.651233 15.249531 0.269513 -5.094255 31.456211 -0.660724 -1.134095 16.176352 0.000002 -0.000002 0.000003 -4.967241 -10.090642 13.368007 4.005151 -4.056077 38.130327 2.123173 -3.154005 20.466747 0.000001 -0.000003 0.000001 -6.447189 -11.298467 22.948681 10.719517 -2.567289 37.914134 6.423007 -3.087458 18.370601 0.000000 0.000001 0.000001 -13.334977 9.821691 -14.139292 27.221244 -11.733761 -0.562785 19.920955 -0.729682 14.611086 -29.078185 0.094175 1.049654 0.000000 -0.000000 0.000000 -22.009567 17.219894 -1.046581 45.417811 -6.924176 -0.541261 32.297185 -5.745422 -4.727884 -35.687568 -0.924237 7.382150 0.000000 0.000001 -0.000000 
83.575912 117.703194 193.353073 -2.380358 46.120900 6.790003 3.352768 -1.613449 -6.744623 -1.781114 -1.770521 1.443604 0.000000 0.000000 0.000000 -1.883105 -1.652047 1.562385 -7.063836 2.589954 2.525422 3.065762 7.112183 -2.915455 -0.000000 0.000002 0.000000 1.118779 7.115252 -4.973794 0.000000 0.000000 0.000000 3.357547 -8.132481 -69.115593 10.372770 -23.221357 4.056530 -3.801006 -0.070271 -3.042808 10.950728 2.056783 25.612168 -6.235090 24.902892 -7.035904 -9.977773 -2.837271 -4.294385 -0.000004 0.000002 -0.000000 2.262119 2.707675 -6.405976 -2.152480 2.438506 -11.450577 -1.888775 4.817468 -7.233000 -0.000001 -0.000001 -0.000000 -1.978363 5.652189 -11.792010 0.258163 5.085930 -30.882454 -0.657775 1.134375 -15.603292 0.000001 -0.000002 0.000002 -4.963215 10.083306 -10.390167 4.009822 4.046809 -37.449459 2.111337 3.155206 -19.785217 0.000000 0.000002 -0.000004 -6.455441 11.294972 -19.776715 10.728678 2.575529 -38.192341 6.433267 3.098089 -18.648083 0.000001 0.000002 -0.000000 0.499421 4.835793 3.514560 0.000000 0.000000 0.000000 3.199687 -1.335508 75.878634 10.075123 11.516167 -3.432983 -0.002063 3.871220 -2.507592 10.739675 0.683867 -25.307859 -5.808695 -25.576944 7.044959 -8.079424 -0.851712 3.310466 0.000000 0.000000 -0.000001 2.307822 -3.224471 8.487376 -2.151020 -2.431821 16.398750 -1.878122 -4.828519 12.180679 0.000002 -0.000001 -0.000000 -1.975070 -5.652000 15.619253 0.269527 -5.094121 31.517498 -0.660559 -1.133939 16.237661 -0.000002 0.000001 -0.000001 -4.967819 -10.091931 13.686663 4.005374 -4.056329 38.203137 2.123491 -3.154532 20.539584 -0.000001 -0.000000 -0.000000 -6.448309 -11.300623 23.287776 10.719654 -2.567326 37.884566 6.422917 -3.087478 18.341102 0.000001 0.000001 -0.000001 -12.236369 9.219755 -13.417196 26.420051 -12.809351 -0.655073 19.689730 -0.696899 14.847288 -29.318403 0.089117 0.936491 -0.000000 -0.000002 -0.000000 -23.478731 18.018982 -0.592452 42.807944 -7.041516 -0.555944 30.552819 -5.385597 -2.465287 -34.396474 -0.610603 6.370177 0.000000 0.000000 -0.000000 
